<svg width="512" height="512" viewBox="0 0 512 512" fill="none" xmlns="http://www.w3.org/2000/svg">
<g clip-path="url(#clip0_1427_3)">
<path d="M0 256C0 397.385 114.615 512 256 512C397.385 512 512 397.385 512 256C512 114.615 397.385 0 256 0C114.615 0 0 114.615 0 256Z" fill="url(#paint0_linear_1427_3)"/>
<path d="M383 165H129C110.222 165 95 180.222 95 199V351C95 369.778 110.222 385 129 385H383C401.778 385 417 369.778 417 351V199C417 180.222 401.778 165 383 165Z" fill="url(#paint1_linear_1427_3)"/>
<path d="M383 249H129C110.222 249 95 264.222 95 283V351C95 369.778 110.222 385 129 385H383C401.778 385 417 369.778 417 351V283C417 264.222 401.778 249 383 249Z" fill="url(#paint2_linear_1427_3)"/>
<path d="M383 165H129C110.222 165 95 177.984 95 194C95 210.016 110.222 223 129 223H383C401.778 223 417 210.016 417 194C417 177.984 401.778 165 383 165Z" fill="white" fill-opacity="0.08"/>
<path d="M355 135H171C156.641 135 145 146.641 145 161V295C145 309.359 156.641 321 171 321H355C369.359 321 381 309.359 381 295V161C381 146.641 369.359 135 355 135Z" fill="#060C14" fill-opacity="0.18"/>
<path d="M237 127H157C147.059 127 139 135.059 139 145V285C139 294.941 147.059 303 157 303H237C246.941 303 255 294.941 255 285V145C255 135.059 246.941 127 237 127Z" fill="url(#paint3_linear_1427_3)"/>
<path d="M349 127H269C259.059 127 251 135.059 251 145V285C251 294.941 259.059 303 269 303H349C358.941 303 367 294.941 367 285V145C367 135.059 358.941 127 349 127Z" fill="url(#paint4_linear_1427_3)"/>
<path d="M258 144C258 140.134 254.866 137 251 137C247.134 137 244 140.134 244 144V292C244 295.866 247.134 299 251 299C254.866 299 258 295.866 258 292V144Z" fill="#866536" fill-opacity="0.18"/>
<path d="M221 165H169C166.791 165 165 166.791 165 169C165 171.209 166.791 173 169 173H221C223.209 173 225 171.209 225 169C225 166.791 223.209 165 221 165Z" fill="#22344D" fill-opacity="0.22"/>
<path d="M235 185H169C166.791 185 165 186.791 165 189C165 191.209 166.791 193 169 193H235C237.209 193 239 191.209 239 189C239 186.791 237.209 185 235 185Z" fill="#22344D" fill-opacity="0.22"/>
<path d="M219 205H169C166.791 205 165 206.791 165 209C165 211.209 166.791 213 169 213H219C221.209 213 223 211.209 223 209C223 206.791 221.209 205 219 205Z" fill="#22344D" fill-opacity="0.22"/>
<path d="M325 169H279C276.791 169 275 170.791 275 173C275 175.209 276.791 177 279 177H325C327.209 177 329 175.209 329 173C329 170.791 327.209 169 325 169Z" fill="#22344D" fill-opacity="0.22"/>
<path d="M333 189H279C276.791 189 275 190.791 275 193C275 195.209 276.791 197 279 197H333C335.209 197 337 195.209 337 193C337 190.791 335.209 189 333 189Z" fill="#22344D" fill-opacity="0.22"/>
<path d="M319 209H279C276.791 209 275 210.791 275 213C275 215.209 276.791 217 279 217H319C321.209 217 323 215.209 323 213C323 210.791 321.209 209 319 209Z" fill="#22344D" fill-opacity="0.22"/>
<path d="M360 337H154C149.029 337 145 341.029 145 346C145 350.971 149.029 355 154 355H360C364.971 355 369 350.971 369 346C369 341.029 364.971 337 360 337Z" fill="#FFF5DF" fill-opacity="0.24"/>
<path d="M315 363H151C147.686 363 145 365.686 145 369C145 372.314 147.686 375 151 375H315C318.314 375 321 372.314 321 369C321 365.686 318.314 363 315 363Z" fill="#FFF5DF" fill-opacity="0.18"/>
</g>
<defs>
<linearGradient id="paint0_linear_1427_3" x1="56" y1="32" x2="456" y2="492" gradientUnits="userSpaceOnUse">
<stop stop-color="#0E1A2B"/>
<stop offset="1" stop-color="#133250"/>
</linearGradient>
<linearGradient id="paint1_linear_1427_3" x1="256" y1="165" x2="256" y2="385" gradientUnits="userSpaceOnUse">
<stop stop-color="#F6C15A"/>
<stop offset="1" stop-color="#E89A2D"/>
</linearGradient>
<linearGradient id="paint2_linear_1427_3" x1="256" y1="249" x2="256" y2="385" gradientUnits="userSpaceOnUse">
<stop stop-color="#E89A2D"/>
<stop offset="1" stop-color="#C96B1F"/>
</linearGradient>
<linearGradient id="paint3_linear_1427_3" x1="139" y1="127" x2="255" y2="303" gradientUnits="userSpaceOnUse">
<stop stop-color="#FFFDF7"/>
<stop offset="1" stop-color="#FFF5DF"/>
</linearGradient>
<linearGradient id="paint4_linear_1427_3" x1="251" y1="127" x2="367" y2="303" gradientUnits="userSpaceOnUse">
<stop stop-color="#FFFDF7"/>
<stop offset="1" stop-color="#F3EAD9"/>
</linearGradient>
<clipPath id="clip0_1427_3">
<rect width="512" height="512" fill="white"/>
</clipPath>
</defs>
</svg>
